<?xml version="1.0" standalone="no"?>
<!DOCTYPE svg PUBLIC "-//W3C//DTD SVG 20010904//EN"
 "http://www.w3.org/TR/2001/REC-SVG-20010904/DTD/svg10.dtd">
<svg version="1.0" xmlns="http://www.w3.org/2000/svg"
 width="260.000000pt" height="260.000000pt" viewBox="0 0 260.000000 260.000000"
 preserveAspectRatio="xMidYMid meet">
<metadata>
Created by potrace 1.11, written by Peter Selinger 2001-2013
</metadata>
<g transform="translate(0.000000,260.000000) scale(0.100000,-0.100000)"
fill="#000000" stroke="none">
<path d="M1450 2497 c-3 -2 -25 -7 -50 -10 -25 -3 -57 -10 -72 -16 -16 -6 -28
-9 -28 -6 0 6 -170 -84 -205 -109 -16 -11 -40 -26 -52 -33 -12 -6 -28 -16 -35
-22 -7 -6 -31 -25 -53 -42 -84 -64 -99 -77 -195 -171 -105 -103 -145 -155
-177 -228 -40 -88 -46 -120 -41 -219 4 -79 11 -109 37 -170 45 -106 185 -297
297 -406 71 -68 125 -115 133 -115 5 0 11 -6 14 -12 2 -8 24 4 58 34 108 93
144 127 132 128 -10 0 -80 76 -204 221 -101 118 -176 230 -165 248 4 5 2 12
-3 15 -4 3 -6 20 -4 38 3 18 5 39 6 47 2 44 143 231 174 231 7 0 13 4 13 9 0
9 33 35 174 144 49 37 135 86 194 111 79 33 166 30 219 -8 50 -35 93 -73 93
-82 0 -4 7 -14 15 -23 9 -9 28 -32 43 -52 15 -20 38 -50 52 -68 29 -38 43 -59
89 -129 19 -29 40 -52 48 -52 7 0 28 13 46 30 17 16 57 52 87 79 l55 50 -18
31 c-10 17 -24 41 -30 53 -20 36 -99 150 -124 177 -13 14 -23 29 -23 34 0 5
-11 19 -26 32 -14 13 -23 24 -19 24 17 0 -148 146 -195 171 -16 9 -35 21 -42
27 -11 8 -41 17 -98 29 -41 8 -116 14 -120 10z"/>
<path d="M1373 1663 c-29 -32 -67 -74 -83 -94 l-30 -37 35 -23 c19 -13 35 -27
35 -31 0 -5 5 -8 10 -8 6 0 29 -17 53 -39 23 -21 89 -80 145 -131 57 -51 120
-117 139 -147 32 -48 36 -60 36 -121 0 -54 -6 -77 -28 -117 -98 -178 -348
-430 -490 -493 -42 -19 -124 -22 -164 -5 -19 7 -55 30 -80 50 -57 45 -301 290
-301 302 0 8 -43 41 -53 41 -3 0 -40 -39 -83 -86 l-78 -86 18 -32 c9 -18 27
-44 39 -59 12 -14 37 -44 56 -67 98 -117 314 -310 346 -310 4 0 19 -9 34 -19
61 -43 235 -65 323 -41 21 6 40 11 43 10 23 -2 167 86 245 150 221 181 439
465 468 607 9 48 9 208 -1 249 -18 82 -107 205 -233 324 -37 36 -81 77 -97 93
-16 15 -31 27 -33 27 -2 0 -28 19 -58 43 -30 23 -77 57 -106 75 l-53 32 -54
-57z"/>
</g>
</svg>
