<svg id="Capa_1" enable-background="new 0 0 512 512" height="512" viewBox="0 0 512 512" width="512" xmlns="http://www.w3.org/2000/svg"><g><path d="m512 376.333c0-69.737-52.893-127.344-120.667-134.833v-60.833h-32.58c1.665-4.695 2.58-9.742 2.58-15s-.915-10.305-2.58-15h32.58v-150.667h-391.333v150.667h32.58c-1.665 4.695-2.58 9.742-2.58 15s.915 10.305 2.58 15h-32.58v150.667h32.58c-1.665 4.695-2.58 9.742-2.58 15s.915 10.305 2.58 15h-32.58v150.666h376.833c74.578-.277 135.167-61.027 135.167-135.667zm-482-346.333h331.333v90.667h-331.333zm30 135.667c0-8.271 6.729-15 15-15h241.333c8.271 0 15 6.729 15 15s-6.729 15-15 15h-241.333c-8.271 0-15-6.729-15-15zm-30 45h331.333v30.833c-40.844 4.513-76.279 27.228-97.993 59.834h-233.34zm30 135.666c0-8.271 6.729-15 15-15h173.347c-3.371 9.559-5.699 19.603-6.848 30h-166.502c-8.269-.001-14.997-6.729-14.997-15zm-30 135.667v-90.667h44.996 166.503c4.037 36.533 22.636 68.736 49.85 90.667zm346.333 0c-58.265 0-105.667-47.402-105.667-105.667s47.402-105.667 105.667-105.667 105.667 47.402 105.667 105.667-47.402 105.667-105.667 105.667z"></path><path d="m391.5 316.333h-30v45h-45.167v30h45.167v45.334h30v-45.334h45.167v-30h-45.167z"></path></g></svg>