<?xml version="1.0" encoding="iso-8859-1"?>
<!-- Generator: Adobe Illustrator 19.0.0, SVG Export Plug-In . SVG Version: 6.00 Build 0)  -->
<svg version="1.1" id="Layer_1" xmlns="http://www.w3.org/2000/svg" xmlns:xlink="http://www.w3.org/1999/xlink" x="0px" y="0px" viewBox="0 0 512 512" style="enable-background: new 0 0 512 512" xml:space="preserve">
<path fill="#ffffff" d="M269.6,512H135.04c-9.08,0-16.512-7.432-16.512-16.512V16.512C118.536,7.432,125.96,0,135.04,0H269.6
	c9.08,0,16.512,7.432,16.512,16.512v478.984C286.112,504.568,278.68,512,269.6,512z"></path>
<g>
	<polygon style="fill: #000" points="243.352,74.272 214.24,74.272 214.24,45.128 190.24,45.128 190.24,74.272 161.12,74.272 
		161.12,98.272 190.24,98.272 190.24,127.432 214.24,127.432 214.24,98.272 243.352,98.272 	"></polygon>
</g>
<circle style="fill: #000" cx="202.24" cy="190.536" r="26.816"></circle>
<g>
</g>
<circle style="fill: #000" cx="202.24" cy="300.536" r="26.816"></circle>
</svg>
